<svg width="1670" height="785" viewBox="0 0 1670 785" fill="none" xmlns="http://www.w3.org/2000/svg">
<g filter="url(#filter0_d_0_730)">
<path d="M7.5 115.25V48.3333H286.5H494H729.5H729.929L730.333 48.1904L845.429 7.5H1250H1544.73L1662.5 87.9862V446V666.5V721.305H1595H1387.5H1260H1109.5H1108.98L1108.5 721.514L980.477 777.5H420.5H125.424L7.5 708.895V669.75V666.5V446V225.5V115.25Z" stroke="#FD02D6" stroke-opacity="0.61" stroke-width="5"/>
</g>
<path d="M1120 736H1278L1173 780H1015L1120 736Z" fill="#D9D9D9"/>
<path d="M1313 736H1471L1366 780H1208L1313 736Z" fill="#D9D9D9"/>
<path d="M1506 736H1664L1559 780H1401L1506 736Z" fill="#D9D9D9"/>
<path d="M662.509 5H828L779.491 21H614L662.509 5Z" fill="#D9D9D9"/>
<path d="M607.509 25H773L724.491 41H559L607.509 25Z" fill="#D9D9D9"/>
<defs>
<filter id="filter0_d_0_730" x="0" y="0" width="1670" height="785" filterUnits="userSpaceOnUse" color-interpolation-filters="sRGB">
<feFlood flood-opacity="0" result="BackgroundImageFix"/>
<feColorMatrix in="SourceAlpha" type="matrix" values="0 0 0 0 0 0 0 0 0 0 0 0 0 0 0 0 0 0 127 0" result="hardAlpha"/>
<feOffset/>
<feGaussianBlur stdDeviation="2.5"/>
<feColorMatrix type="matrix" values="0 0 0 0 0.992157 0 0 0 0 0.00784314 0 0 0 0 0.839216 0 0 0 1 0"/>
<feBlend mode="normal" in2="BackgroundImageFix" result="effect1_dropShadow_0_730"/>
<feBlend mode="normal" in="SourceGraphic" in2="effect1_dropShadow_0_730" result="shape"/>
</filter>
</defs>
</svg>
